<?xml version="1.0" standalone="no"?>
<!DOCTYPE svg PUBLIC "-//W3C//DTD SVG 20010904//EN"
 "http://www.w3.org/TR/2001/REC-SVG-20010904/DTD/svg10.dtd">
<svg version="1.0" xmlns="http://www.w3.org/2000/svg"
 width="100.000000pt" height="100.000000pt" viewBox="0 0 100.000000 100.000000"
 preserveAspectRatio="xMidYMid meet">

<g transform="translate(0.000000,100.000000) scale(0.100000,-0.100000)"
fill="#000000" stroke="none">
<path d="M360 840 l0 -120 -110 0 -110 0 0 -140 0 -140 110 0 110 0 0 -200 0
-200 140 0 140 0 0 200 0 200 110 0 110 0 0 140 0 140 -110 0 -110 0 0 120 0
120 -140 0 -140 0 0 -120z m180 -100 l0 -120 110 0 110 0 0 -40 0 -40 -110 0
-110 0 0 -200 0 -200 -40 0 -40 0 0 200 0 200 -110 0 -110 0 0 40 0 40 110 0
110 0 0 120 0 120 40 0 40 0 0 -120z"/>
</g>
</svg>
