<?xml version="1.0" standalone="no"?>
<!DOCTYPE svg PUBLIC "-//W3C//DTD SVG 20010904//EN"
 "http://www.w3.org/TR/2001/REC-SVG-20010904/DTD/svg10.dtd">
<svg version="1.0" xmlns="http://www.w3.org/2000/svg"
 width="516.000000pt" height="461.000000pt" viewBox="0 0 516.000000 461.000000"
 preserveAspectRatio="xMidYMid meet">

<g transform="translate(0.000000,461.000000) scale(0.100000,-0.100000)"
fill="#000000" stroke="none">
<path d="M2469 4398 c-34 -40 -85 -97 -113 -125 -27 -29 -47 -55 -44 -58 3 -3
34 27 68 67 108 126 159 176 176 174 9 -1 31 -20 50 -42 18 -21 33 -34 34 -29
0 18 -71 85 -90 85 -10 0 -45 -32 -81 -72z"/>
<path d="M2676 4337 c3 -10 9 -15 12 -12 3 3 0 11 -7 18 -10 9 -11 8 -5 -6z"/>
<path d="M2700 4316 c0 -2 8 -10 18 -17 15 -13 16 -12 3 4 -13 16 -21 21 -21
13z"/>
<path d="M2752 4250 c12 -16 26 -30 32 -30 5 0 -3 14 -19 30 -16 17 -30 30
-32 30 -2 0 6 -13 19 -30z"/>
<path d="M2806 4190 c35 -45 93 -105 96 -100 2 3 -23 32 -56 65 -33 33 -51 49
-40 35z"/>
<path d="M2275 4179 c-4 -6 -5 -12 -2 -15 2 -3 7 2 10 11 7 17 1 20 -8 4z"/>
<path d="M2235 4140 c-3 -5 -1 -10 4 -10 6 0 11 5 11 10 0 6 -2 10 -4 10 -3 0
-8 -4 -11 -10z"/>
<path d="M2013 3757 c-187 -210 -473 -530 -634 -711 -369 -413 -433 -486 -428
-489 5 -4 484 -96 485 -94 0 1 153 277 339 612 186 336 393 711 462 834 68
123 122 225 120 227 -2 2 -156 -169 -344 -379z"/>
<path d="M2409 4082 c-13 -26 -72 -132 -131 -237 -58 -104 -212 -383 -343
-620 -131 -236 -280 -506 -332 -599 -51 -93 -92 -171 -90 -173 6 -5 459 -95
462 -91 2 2 20 66 40 143 20 77 47 181 60 230 13 50 35 133 49 185 13 52 52
201 86 330 34 129 84 318 110 420 27 102 65 245 84 319 20 74 35 135 34 137
-2 1 -15 -18 -29 -44z"/>
<path d="M2580 3196 c0 -514 3 -937 8 -939 6 -4 462 82 470 88 3 3 -134 532
-374 1438 -46 175 -84 325 -84 333 0 8 -4 14 -10 14 -7 0 -10 -318 -10 -934z"/>
<path d="M2760 4110 c18 -36 166 -306 248 -451 38 -68 83 -149 99 -179 17 -30
109 -197 205 -370 96 -173 216 -390 266 -481 l92 -166 218 43 c119 24 227 44
240 44 12 0 22 4 22 9 0 5 -26 38 -57 73 -121 133 -300 333 -343 383 -25 28
-135 152 -245 275 -110 123 -240 269 -290 325 -247 279 -421 473 -443 495
l-24 25 12 -25z"/>
<path d="M2157 4046 c-37 -41 -67 -78 -67 -83 0 -9 66 61 112 120 48 60 26 43
-45 -37z"/>
<path d="M2910 4075 c0 -9 80 -88 85 -84 2 3 -14 24 -36 47 -39 40 -49 48 -49
37z"/>
<path d="M3020 3956 c0 -7 132 -159 160 -186 3 -3 16 -18 28 -34 12 -16 22
-23 22 -17 0 11 -19 34 -111 136 -25 27 -57 63 -72 80 -15 16 -27 26 -27 21z"/>
<path d="M2061 3941 c-8 -5 -9 -11 -3 -15 5 -3 12 1 16 9 6 17 6 18 -13 6z"/>
<path d="M2026 3904 c-18 -18 -20 -24 -6 -24 5 0 14 9 20 20 13 24 7 26 -14 4z"/>
<path d="M1988 3861 c-1 -5 -23 -31 -48 -58 -25 -27 -79 -87 -120 -133 -41
-47 -77 -87 -80 -90 -37 -38 -71 -81 -59 -74 9 5 58 56 109 114 110 124 164
185 199 223 13 15 20 27 14 27 -6 0 -13 -4 -15 -9z"/>
<path d="M3295 3650 c42 -53 91 -106 106 -116 15 -8 -42 58 -99 116 l-35 35
28 -35z"/>
<path d="M3960 3401 l0 -172 62 -67 c34 -37 67 -72 73 -78 5 -6 92 -96 191
-200 312 -325 344 -359 341 -366 -2 -8 -291 -310 -517 -541 -74 -76 -138 -148
-143 -159 -4 -12 -6 -93 -5 -180 l3 -159 100 98 c55 54 277 271 493 482 l392
385 0 71 0 72 -491 489 c-269 269 -492 491 -495 493 -2 2 -4 -73 -4 -168z"/>
<path d="M673 3069 l-493 -492 0 -62 c0 -74 -3 -69 181 -256 68 -70 270 -276
449 -458 268 -274 326 -328 331 -313 12 32 30 309 21 331 -4 11 -120 136 -257
278 -137 142 -285 294 -327 338 l-77 80 51 55 c28 30 146 154 262 275 117 121
244 255 284 297 l72 77 0 170 c0 94 -1 171 -2 171 -2 0 -225 -221 -495 -491z"/>
<path d="M3410 3513 c0 -5 12 -20 28 -34 l27 -24 -25 30 c-14 17 -26 32 -27
34 -2 2 -3 0 -3 -6z"/>
<path d="M1640 3469 c-7 -11 -9 -23 -6 -27 3 -3 6 0 6 6 0 6 7 18 16 26 8 9
11 16 5 16 -6 0 -15 -9 -21 -21z"/>
<path d="M3470 3450 c0 -5 9 -14 20 -20 11 -6 18 -15 15 -20 -3 -5 -1 -11 4
-14 5 -4 12 -2 15 2 3 5 -8 21 -24 36 -17 14 -30 22 -30 16z"/>
<path d="M1590 3415 c-13 -14 -22 -27 -19 -29 2 -2 14 10 27 25 29 36 24 38
-8 4z"/>
<path d="M3540 3370 c6 -11 15 -20 20 -20 6 0 2 9 -7 20 -10 11 -19 20 -21 20
-1 0 2 -9 8 -20z"/>
<path d="M1536 3343 c-6 -14 -5 -15 5 -6 7 7 10 15 7 18 -3 3 -9 -2 -12 -12z"/>
<path d="M3565 3332 c6 -4 31 -30 58 -59 26 -29 47 -49 47 -44 0 12 -94 111
-105 111 -7 0 -7 -3 0 -8z"/>
<path d="M1489 3294 c-13 -14 -17 -23 -9 -19 13 5 46 45 37 45 -2 0 -14 -11
-28 -26z"/>
<path d="M1417 3213 c-26 -25 -45 -48 -42 -51 3 -3 6 -3 8 -1 1 2 22 26 47 52
57 61 49 61 -13 0z"/>
<path d="M3709 3184 c17 -23 44 -56 60 -73 15 -16 26 -33 22 -37 -3 -4 0 -4 7
1 11 5 6 16 -20 44 -19 20 -50 52 -68 71 l-33 35 32 -41z"/>
<path d="M1340 3135 c-20 -24 -6 -28 15 -5 10 11 13 20 8 20 -6 0 -16 -7 -23
-15z"/>
<path d="M1254 3034 c-32 -36 -61 -71 -63 -78 -4 -12 109 109 122 130 16 27 0
13 -59 -52z"/>
<path d="M3810 3063 c0 -3 18 -23 40 -44 22 -22 40 -35 40 -31 0 5 -18 25 -40
45 -22 19 -40 33 -40 30z"/>
<path d="M3897 2972 c-2 -4 9 -17 24 -30 16 -13 29 -21 29 -17 0 11 -49 55
-53 47z"/>
<path d="M1160 2933 c0 -5 -17 -26 -37 -47 -20 -21 -31 -37 -23 -34 19 6 85
88 71 88 -6 0 -11 -3 -11 -7z"/>
<path d="M3967 2888 c11 -13 35 -39 53 -58 17 -19 39 -45 47 -58 20 -29 55
-50 47 -28 -3 9 -9 14 -12 13 -4 -1 -7 0 -7 3 -1 12 -131 150 -142 150 -3 0 3
-10 14 -22z"/>
<path d="M1040 2797 c-12 -21 -12 -21 6 -7 10 8 20 15 22 16 2 1 -1 4 -5 7 -5
3 -15 -4 -23 -16z"/>
<path d="M971 2719 c-58 -67 -49 -69 13 -2 27 29 45 53 40 53 -5 -1 -29 -23
-53 -51z"/>
<path d="M4120 2716 c0 -2 7 -7 16 -10 8 -3 12 -2 9 4 -6 10 -25 14 -25 6z"/>
<path d="M4150 2683 c0 -13 50 -56 57 -49 3 3 2 6 -4 6 -5 0 -15 11 -21 25
-11 23 -32 35 -32 18z"/>
<path d="M900 2631 c0 -7 -4 -9 -10 -6 -5 3 -10 2 -10 -3 0 -5 -13 -25 -30
-43 -32 -37 -35 -45 -20 -54 6 -3 10 2 10 11 0 10 17 35 37 56 20 21 34 41 30
44 -4 4 -7 2 -7 -5z"/>
<path d="M4235 2590 c17 -19 31 -37 33 -39 1 -2 4 -2 7 1 3 2 -12 20 -33 39
l-37 34 30 -35z"/>
<path d="M4237 2493 c-4 -3 -7 -11 -7 -17 0 -6 5 -5 12 2 6 6 9 14 7 17 -3 3
-9 2 -12 -2z"/>
<path d="M992 2461 c11 -16 395 -448 658 -741 52 -58 201 -224 330 -370 129
-145 254 -285 278 -310 l43 -45 -41 68 c-22 38 -51 85 -64 105 -13 20 -191
306 -395 635 -205 328 -375 597 -379 597 -4 0 -101 18 -217 40 -115 22 -214
40 -218 40 -5 0 -2 -8 5 -19z"/>
<path d="M4085 2473 c-11 -2 -105 -20 -210 -40 -147 -27 -194 -40 -207 -55
-10 -11 -65 -97 -124 -191 -59 -95 -139 -224 -179 -287 -40 -63 -159 -254
-265 -425 -106 -170 -215 -345 -242 -387 -26 -43 -47 -78 -45 -78 4 0 147 160
678 756 167 187 377 422 467 522 89 100 162 184 162 187 0 5 -4 5 -35 -2z"/>
<path d="M4179 2423 l-34 -38 38 34 c20 19 37 36 37 38 0 8 -8 0 -41 -34z"/>
<path d="M917 2420 c14 -16 28 -30 30 -30 2 0 -6 14 -19 30 -12 17 -25 30 -30
30 -4 0 4 -13 19 -30z"/>
<path d="M979 2352 c11 -16 28 -35 38 -43 10 -8 3 5 -16 29 -37 47 -53 58 -22
14z"/>
<path d="M1542 2348 c9 -13 34 -54 58 -93 24 -38 116 -187 205 -330 89 -143
260 -417 380 -610 119 -192 221 -354 226 -359 5 -6 -22 82 -59 195 -38 112
-137 414 -222 670 l-153 467 -212 41 c-116 22 -217 41 -224 41 -10 0 -10 -5 1
-22z"/>
<path d="M4100 2335 c-19 -19 -30 -35 -24 -34 9 0 70 69 62 69 -2 0 -19 -16
-38 -35z"/>
<path d="M2815 2230 l-230 -46 -2 -647 c-2 -356 1 -647 5 -647 7 0 466 1380
460 1384 -2 2 -106 -18 -233 -44z"/>
<path d="M1086 2227 c22 -24 41 -42 43 -40 6 4 -62 81 -73 82 -5 1 9 -18 30
-42z"/>
<path d="M4019 2243 l-24 -28 28 24 c25 23 32 31 24 31 -2 0 -14 -12 -28 -27z"/>
<path d="M3946 2162 l-39 -47 43 42 c24 23 42 44 40 47 -3 2 -23 -17 -44 -42z"/>
<path d="M3888 2101 c-1 -5 -39 -49 -83 -96 -78 -85 -110 -125 -102 -125 2 0
50 52 106 115 56 63 98 115 92 115 -5 0 -11 -4 -13 -9z"/>
<path d="M1226 2077 c3 -10 9 -15 12 -12 3 3 0 11 -7 18 -10 9 -11 8 -5 -6z"/>
<path d="M1285 2010 c10 -11 20 -20 23 -20 3 0 -3 9 -13 20 -10 11 -20 20 -23
20 -3 0 3 -9 13 -20z"/>
<path d="M1351 1933 c24 -27 48 -50 54 -52 15 -6 -67 86 -84 93 -8 4 6 -15 30
-41z"/>
<path d="M3665 1850 c-16 -17 -16 -20 -3 -15 9 4 19 13 22 21 7 19 2 18 -19
-6z"/>
<path d="M1442 1830 c7 -11 19 -22 28 -25 8 -4 4 5 -9 19 -29 31 -36 33 -19 6z"/>
<path d="M3620 1800 c-8 -10 -30 -37 -48 -59 -51 -62 -32 -49 27 19 29 33 49
60 44 60 -4 -1 -15 -9 -23 -20z"/>
<path d="M1485 1780 c3 -5 8 -10 11 -10 2 0 4 5 4 10 0 6 -5 10 -11 10 -5 0
-7 -4 -4 -10z"/>
<path d="M1540 1723 c18 -24 35 -43 37 -43 9 0 -18 37 -43 60 -24 22 -23 20 6
-17z"/>
<path d="M1590 1673 c0 -4 19 -28 42 -53 22 -25 34 -36 27 -25 -23 34 -69 86
-69 78z"/>
<path d="M3445 1598 l-40 -43 43 40 c39 36 47 45 39 45 -2 0 -21 -19 -42 -42z"/>
<path d="M3374 1518 l-29 -33 33 29 c17 17 32 31 32 33 0 8 -8 1 -36 -29z"/>
<path d="M1730 1514 c0 -6 17 -26 38 -45 l37 -34 -35 40 c-19 22 -36 42 -37
44 -2 2 -3 0 -3 -5z"/>
<path d="M3323 1468 c-23 -30 -24 -41 -2 -21 12 12 20 25 17 28 -3 3 -10 0
-15 -7z"/>
<path d="M1830 1403 c1 -11 70 -88 70 -78 0 4 -16 25 -35 46 -19 22 -35 36
-35 32z"/>
<path d="M3237 1370 c-19 -22 -22 -35 -7 -25 10 6 34 45 28 45 -2 0 -11 -9
-21 -20z"/>
<path d="M3184 1308 l-19 -23 23 19 c12 11 22 21 22 23 0 8 -8 2 -26 -19z"/>
<path d="M1925 1290 c10 -11 20 -20 23 -20 3 0 -3 9 -13 20 -10 11 -20 20 -23
20 -3 0 3 -9 13 -20z"/>
<path d="M3115 1233 c-49 -55 -70 -92 -25 -43 18 19 44 47 58 63 14 15 22 27
16 26 -5 0 -27 -21 -49 -46z"/>
<path d="M2005 1200 c21 -22 41 -40 44 -40 3 0 -13 18 -34 40 -21 22 -41 40
-44 40 -3 0 13 -18 34 -40z"/>
<path d="M1560 1094 c25 -26 167 -171 316 -323 149 -152 347 -354 440 -449
l170 -172 69 0 69 0 491 495 492 495 -174 0 -175 0 -93 -87 c-51 -49 -91 -94
-89 -101 2 -7 -1 -10 -6 -7 -13 8 -371 -335 -363 -348 3 -6 2 -7 -4 -4 -13 8
-56 -37 -46 -48 5 -4 3 -5 -3 -2 -5 3 -30 -12 -55 -33 l-44 -40 -95 93 c-112
109 -329 319 -486 470 l-112 107 -173 0 -173 0 44 -46z"/>
<path d="M2070 1127 c0 -2 15 -16 33 -33 l32 -29 -29 33 c-28 30 -36 37 -36
29z"/>
<path d="M2952 1050 c-56 -65 -49 -64 12 0 26 28 44 50 39 50 -4 -1 -27 -23
-51 -50z"/>
<path d="M2150 1042 c1 -9 90 -105 90 -96 0 4 -20 29 -45 55 -25 26 -45 45
-45 41z"/>
<path d="M2881 968 c-14 -23 -14 -23 8 -4 22 20 25 26 13 26 -4 0 -13 -10 -21
-22z"/>
<path d="M2250 933 c0 -5 10 -18 23 -29 l22 -19 -20 25 c-11 14 -21 27 -22 29
-2 2 -3 0 -3 -6z"/>
<path d="M2824 903 c-15 -20 -23 -33 -16 -29 13 8 56 66 49 66 -3 0 -17 -17
-33 -37z"/>
<path d="M2355 810 c10 -11 20 -20 23 -20 3 0 -3 9 -13 20 -10 11 -20 20 -23
20 -3 0 3 -9 13 -20z"/>
<path d="M2745 819 c-11 -16 -1 -19 13 -3 7 8 8 14 3 14 -5 0 -13 -5 -16 -11z"/>
<path d="M2390 774 c0 -6 15 -23 33 -40 l32 -29 -30 35 c-16 19 -31 37 -32 39
-2 2 -3 0 -3 -5z"/>
<path d="M2677 742 c-10 -10 -17 -22 -17 -27 0 -4 9 2 20 15 11 13 20 25 20
27 0 7 -8 2 -23 -15z"/>
<path d="M2496 650 c48 -50 67 -60 80 -38 5 8 0 9 -14 6 -17 -5 -31 4 -61 38
-21 24 -42 44 -45 44 -4 0 14 -22 40 -50z"/>
<path d="M2599 653 c-13 -16 -12 -17 4 -4 16 13 21 21 13 21 -2 0 -10 -8 -17
-17z"/>
</g>
</svg>
